Patient4_TMGait_0pt4_01_right_03_EMG.mot
version=1
nRows=33
nColumns=33
inDegrees=no
endheader
time	1LAddLong	2LGlutMax	3LGlutMed	4LIliopsoas	5LSemiMemb	6LBicFemLong	7LRecFem	8LVastMed	9LVastLat	10LGasMed	11LTibAnt	12lTibPost	13LPeroneusLong	14LSol	15LExtDigLong	16LFlexDigLong	17RAddLong	18RGlutMax	19RGlutMed	20RIliopsoas	21RSemiMemb	22RBicFemLong	23RRecFem	24RVastMed	25RVastLat	26RGasMed	27RTibAnt	28RTibPost	29RPeroneusLong	30RSol	31RExtDigLong	32RFlexDigLong
4.365	0.027313	0.050354	-0.029907	-0.003815	0.093689	0.11414	-0.10361	-0.019073	0.22598	0.003662	-0.029602	0.004272	0.025482	0.050964	0.033417	-0.014496	0.014648	0.1239	-0.057373	0.29877	0.049591	-0.066986	-0.1001	-0.018463	0.093994	0.003662	-0.28717	-0.005341	0.014496	-0.091858	0.011749	-0.002136
4.366	0.007477	0.030365	-0.013275	0.000458	0.022888	0.18539	-0.096283	-0.021515	0.14816	-0.000763	-0.016937	-0.00061	0.019836	0.040131	0.021057	-0.005341	0.029602	0.18753	0.29648	0.17288	0.026855	-0.12039	-0.002747	0.047302	0.070648	0.005035	-0.50476	-0.006104	-0.57571	-0.08728	0.014191	-0.007629
4.367	0.006561	0.041809	0.000153	0.010834	0.007629	0.18402	-0.11673	-0.013123	0.31693	0.005341	-0.007172	0	0.011292	0.055695	0.014801	0.009308	0.030823	0.14191	0.336	0.090485	0.04425	-0.13931	-0.064392	0.070801	0.041809	0.003052	-0.41718	-0.007019	-0.30014	0.013275	0.009766	-0.002747
4.368	-0.009918	0.0354	-0.002289	0.001068	-0.036621	0.17609	-0.13382	-0.007172	0.21896	0.024719	-0.000305	-0.003662	-0.002289	0.04303	0.012207	0.005035	0.027771	0.1767	0.43579	-0.009155	0.015259	-0.097046	-0.014801	0.0177	0.047913	0.001526	-0.24841	-0.008392	-0.34073	0.06958	0.010223	-0.002899
4.369	-0.024261	0.049744	0.010376	0.01358	-0.054321	0.1413	-0.11353	-0.005493	-0.15305	0.011749	-0.009918	-0.006714	0.078125	0.040588	0.006409	-0.000305	0.016632	0.17944	0.30701	-0.16419	-0.12116	-0.08606	0.033722	0.002594	0.06546	-0.001984	-0.099792	-0.004425	-0.4158	0.14587	0.013885	-0.012665
4.37	-0.041199	0.041046	0.030365	0.003052	-0.094604	0.10803	-0.043182	-0.010376	-0.57617	0.01297	-0.009003	0.002899	0.1207	0.078735	0.004578	-0.004883	0.003357	0.14984	0.34149	-0.2066	-0.11658	-0.077057	-0.022125	0.052643	0.080261	-0.006714	-0.11276	-0.002594	0.46448	0.082855	0.00824	-0.008698
4.371	-0.042419	0.06897	-0.000763	0.019073	-0.11658	0.21103	-0.027618	0.002899	-0.63828	0.028076	-0.018768	0.00351	0.13077	0.068054	0.013885	-0.005035	0.011597	0.12466	0.30945	-0.064392	0.001984	-0.077667	-0.02121	0.013733	0.071716	0.002289	-0.25589	-0.00351	1.2021	-0.11902	0.000305	-0.006714
4.372	-0.040131	0.065765	-0.003204	0.015564	-0.16739	0.17334	-0.046692	-0.005646	-0.46936	0.026245	0.000458	0	0.2356	0.058289	0.038605	-0.006714	-0.001068	0.12161	0.2887	0.02594	0.084991	0.000763	-0.010376	0.010834	0.060272	0.003662	-0.1738	-0.005798	0.289	-0.26474	0.006104	-0.014496
4.373	-0.009766	0.069427	0.005341	0.000916	-0.14023	0.049286	-0.046539	-0.017853	-0.3125	0.055695	0.007324	-0.010071	0.27374	0.050049	0.071259	0.000153	0.009613	0.11902	0.14023	-0.02655	0.11871	0.050201	0.011139	-0.014343	0.04715	0.005493	0.054474	-0.005646	-0.38361	-0.12177	0.014191	-0.007782
4.374	0.023956	0.065308	-0.005951	0.001831	-0.099335	-0.070038	-0.024261	-0.015106	-0.18356	0.027466	-0.003815	0	0.3801	0.078735	0.015564	0.001373	0.01236	0.15198	0.10788	-0.030518	0.12756	0.039825	-0.072174	-0.028839	0.046387	-0.007935	0.18906	-0.000458	-0.31937	0.1326	0.002594	-0.013123
4.375	0.032043	0.054474	-0.021362	0.01297	-0.058289	-0.25375	0.024109	-0.016327	-0.087585	-0.019836	-0.002899	-0.00061	0.21439	0.12894	0.005493	-0.006409	-0.005646	0.05188	0.052032	-0.013885	0.1358	0.039978	-0.18158	-0.071259	0.05249	-0.011902	0.062256	-0.009308	0.0383	0.27985	-0.001984	-0.009155
4.376	0.015106	0.058136	-0.031281	0.011902	0.002747	-0.29175	0.04837	-0.015717	-0.0383	-0.057526	-0.020905	-0.000458	-0.25192	0.14374	0.025177	0.006714	-0.012207	0.10773	0.070648	0.022125	-0.033875	0.050659	-0.21622	-0.042725	0.068665	-0.014954	-0.12543	-0.005188	-0.16556	0.32761	0.005035	-0.011597
4.377	0.010681	0.048828	-0.032654	-0.001678	0.1001	-0.39276	0.062256	-0.012665	-0.048981	-0.035858	-0.043182	-0.000763	-0.47577	0.12772	-0.065155	-0.003357	-0.00824	0.055237	0.075836	-0.027924	-0.017548	-0.055695	-0.12711	-0.066833	-0.000153	-0.009613	-0.022888	-0.008698	-0.079498	0.17517	0.006256	-0.01236
4.378	0.000153	0.062866	-0.045013	0.013123	0.11536	-0.5249	-0.00412	-0.004883	-0.023499	0.040894	-0.058289	-0.002747	-0.23636	0.072479	-0.14252	-0.007782	0.003357	0.013733	0.11932	-0.082092	0.045166	-0.10437	-0.13321	-0.074921	0.024719	-0.003357	-0.030518	-0.005188	0.13153	0.19714	-0.000458	-0.009613
4.379	0.006409	0.098724	0.003357	0	0.011902	-0.35263	0.029755	0.014038	-0.036774	0.063782	-0.054626	-0.001373	-0.37293	0.074768	-0.13794	-0.007782	0.017548	0.030823	0.17868	-0.096283	0.02594	-0.075989	-0.1088	-0.051422	0.028381	-0.007019	-0.40924	-0.004272	0.57877	0.1648	0.005341	-0.007782
4.38	-0.042877	0.062561	0.010681	0.010834	0.011902	-0.23758	0.007629	0.027313	-0.059052	0.010834	-0.006256	-0.004272	-0.22263	0.073395	-0.16846	-0.003967	0.035248	0.05188	0.09903	0.017242	0.018768	-0.075684	-0.10895	-0.062103	-0.007324	-0.014801	-0.43472	-0.008545	0.36255	0.042877	0.006256	-0.004578
4.381	-0.000763	0.061188	-0.010986	-0.00061	0.051727	0.053406	-0.023346	0.036621	-0.045013	-0.049286	0.045013	0.002747	0.04837	0.088959	-0.1503	0.011292	0.041199	0.056305	0.11719	0.12711	0.022278	-0.057983	-0.087433	-0.093994	-0.045166	-0.02243	-0.11108	-0.003815	0.13702	-0.023193	0.002136	-0.009308
4.382	-0.028229	0.072174	-0.023804	0.010223	0.011444	0.30762	-0.12039	0.023956	0.003204	-0.049286	0.14938	-0.007629	0.28534	0.088501	0.31403	0.014191	0.034943	0.026093	0.062408	0.15045	0.00473	-0.032043	-0.019684	-0.076447	-0.025787	0.001526	0.90271	-0.005035	0.24323	-0.13199	-0.000305	-0.018921
4.383	0.000305	0.12589	-0.022125	0.013428	0.007477	0.39597	-0.15732	0.018311	0.067444	-0.003967	0.097809	-0.004425	0.20767	0.045319	0.16495	0.003967	0.039825	-0.054474	0.2562	-0.001831	-0.007629	-0.027771	-0.067444	-0.062866	0.019379	0.007782	1.1826	-0.003815	0.075226	-0.17838	-0.00412	-0.010071
4.384	0.010376	0.10574	-0.075378	0.002136	0.033722	0.26886	-0.13687	0.00351	0.1088	0.00824	0.000153	-0.002441	0.018005	0.011902	0.059509	-0.006866	0.032959	-0.000916	0.19104	-0.067596	-0.004425	-0.063019	-0.077362	-0.048676	0.034332	0	0.3183	-0.007629	-0.44418	-0.047302	-0.000458	-0.012054
4.385	0.007019	0.13962	-0.13412	0.011749	-0.006104	0.20493	-0.25116	-0.004272	0.1268	0.033569	0.025482	-0.005646	-0.23743	-0.13962	0.058594	-0.00946	0.002441	0.03067	-0.001678	-0.018921	-0.019531	-0.11856	-0.029449	-0.03067	0.02594	-0.008392	-0.27466	-0.005798	-0.29877	0.13977	0.000305	-0.012207
4.386	0.018463	0.11887	-0.077362	-0.00946	0.037994	0.18829	-0.19241	-0.009613	0.03479	0.024719	-0.018616	0.002289	-0.34897	-0.13641	-0.11963	-0.000916	-0.018616	-0.052185	0.00473	0.000153	-0.053558	-0.10605	-0.075073	-0.063019	-0.018768	-0.000305	-0.093994	-0.005188	0.34958	-0.00824	0.002289	-0.013123
4.387	0.015564	0.11246	-0.031433	-0.00473	0.079498	0.18524	-0.13534	-0.000458	-0.003052	-0.026093	-0.1329	0.000458	0.093689	-0.004272	-0.10254	0.001984	-0.043335	-0.038147	0.026703	-0.009155	-0.10361	-0.10925	-0.27176	-0.03006	0.076904	0.004272	0.005646	-0.00824	0.95734	-0.096283	0.001068	-0.00946
4.388	-0.00885	0.10559	-0.002594	0.020294	0.061188	0.17395	-0.057983	0.000458	0.071411	0.00061	-0.082855	-0.001984	0.076904	0.001526	0.029297	-0.014191	-0.044403	-0.01236	0.060425	-0.016479	-0.045929	-0.068054	-0.25116	-0.001068	0.1416	0.003357	0.03006	-0.00412	0.85938	-0.034027	0.003357	-0.017395
4.389	-0.025787	0.11063	0.0737	0.033875	0.010071	0.20538	-0.12207	0.012512	0.15503	0.010376	0.018463	-0.005951	0.084229	-0.067291	0.09552	0.004578	-0.061951	-0.016174	0.089264	-0.01709	0.054321	-0.042114	-0.12848	0.044403	0.042419	0.00473	-0.00946	-0.005493	0.1384	-0.033417	0.002747	-0.017395
4.39	-0.041962	0.10941	0.089722	0.009003	-0.048981	0.18372	-0.10178	0.016785	0.20905	0.0177	0.084991	-0.00061	0.10178	0.016632	-0.01236	0.004425	-0.049133	0.042725	0.023651	-0.045776	-0.016937	0.073853	-0.11902	0.049438	0.039063	0.001678	-0.23453	0.00473	0.10529	-0.027924	0.003204	-0.010834
4.391	-0.045624	0.068207	0.030975	0.011139	-0.059052	-0.031738	-0.14267	0.027313	0.28564	0.019226	0.062103	-0.003052	0.075073	0.007935	-0.089569	-0.004578	0.001526	-0.006409	-0.050964	0.018158	-0.039825	0.11581	-0.14313	0.013885	0.035095	0.000305	-0.17349	-0.002289	-0.35675	-0.024261	0.00351	-0.018311
4.392	-0.013428	0.060577	0.028839	0.025787	-0.13107	-0.15427	-0.25482	0.013885	0.26855	0.011597	0.031891	0.005188	0.062866	0.007019	-0.041199	-0.00946	0.00946	-0.006409	-0.15854	0.014496	-0.037689	0.15228	-0.12207	0.013428	0.028687	0.003204	-0.13489	-0.00412	-0.55435	-0.026398	0.001678	-0.020752
4.393	0.014801	0.086823	0.048065	0.023956	-0.048065	-0.18112	-0.19043	-0.007019	0.038605	0.016174	0.005951	-0.002899	0.005493	0.004425	-0.001526	-0.002136	0.028992	0.018616	0.011139	-0.024872	-0.039215	0.010681	-0.11856	0.000305	0.030823	-0.004883	0.006104	-0.012054	-0.27878	-0.049591	0.000305	-0.019836
4.394	0.027771	0.06485	0.037231	0.004272	0.061951	-0.289	-0.10666	-0.029144	-0.14496	0.016174	0.023804	-0.007172	-0.057068	-0.028839	-0.000916	0.003357	0.050812	0.071869	0.091095	-0.03067	0.007629	-0.077972	-0.0914	-0.040283	0.023956	-0.000153	-0.19745	-0.003204	0.11551	-0.06012	-0.000305	-0.011292
4.395	0.021667	0.085602	0.037994	0.001678	0.072327	-0.25665	-0.061646	-0.029144	-0.23514	0.009613	0.02182	-0.003052	-0.032959	-0.025635	0.010223	-0.012665	0.037537	0.070953	0.075226	0.027313	0.020142	-0.121	-0.14297	-0.041656	0.039825	0.017242	-0.97198	-0.004272	-0.04425	-0.17593	0.000153	-0.011749
4.396	0.008087	0.084534	0.015869	-0.00473	-0.001831	-0.21042	0.006409	0.000153	-0.15991	-0.001526	0.015259	-0.000153	-0.007324	-0.019836	0.02594	-0.002136	-0.004578	0.0354	0.031586	0.026398	0.051422	-0.13504	-0.11917	-0.066071	0.032959	0.022125	0.1149	-0.003357	-0.4097	-0.16357	0	-0.009918
4.397	0.007477	0.099792	-0.032349	-0.013885	-0.050659	-0.12177	0.090027	0.005798	-0.12344	0.01297	0.00885	-0.003815	0.004425	-0.009308	0.02594	0.013733	-0.036926	0.002594	0.063934	0.085754	0.055237	-0.17639	-0.087585	-0.055847	0.056	0.00351	0.92926	-0.004883	-0.47348	-0.076294	-0.000916	-0.004272
